<svg xmlns="http://www.w3.org/2000/svg"
     width="64" height="64" viewBox="0 0 64 64"
     shape-rendering="crispEdges">

  <!-- Button -->
  <rect x="4" y="4" width="56" height="56" fill="#0e3b2e"/>
  <rect x="6" y="6" width="52" height="52" fill="#114a38"/>

  <!-- Bevel -->
  <rect x="6" y="6" width="52" height="2" fill="#2fffd2"/>
  <rect x="56" y="8" width="2" height="50" fill="#2fffd2"/>
  <rect x="6" y="56" width="52" height="2" fill="#08261d"/>
  <rect x="6" y="8" width="2" height="50" fill="#08261d"/>

  <!-- Arrow shadow -->
  <g fill="#8a6b00">
    <rect x="21" y="21" width="16" height="4"/>
    <rect x="21" y="25" width="20" height="4"/>
    <rect x="21" y="29" width="24" height="6"/>
    <rect x="21" y="35" width="20" height="4"/>
    <rect x="21" y="39" width="16" height="4"/>
    <rect x="45" y="29" width="4" height="6"/>
  </g>

  <!-- Arrow -->
  <g fill="#ffd84d">
    <rect x="22" y="20" width="16" height="4"/>
    <rect x="22" y="24" width="20" height="4"/>
    <rect x="22" y="28" width="24" height="6"/>
    <rect x="22" y="34" width="20" height="4"/>
    <rect x="22" y="38" width="16" height="4"/>
    <rect x="46" y="28" width="4" height="6"/>
  </g>

</svg>

