<svg xmlns="http://www.w3.org/2000/svg" width="64" height="64" viewBox="0 0 64 64" shape-rendering="crispEdges">
  <rect x="4" y="4" width="56" height="56" fill="#0e3b2e"/><rect x="6" y="6" width="52" height="52" fill="#114a38"/>
  <rect x="6" y="6" width="52" height="2" fill="#2fffd2"/><rect x="6" y="8" width="2" height="50" fill="#2fffd2"/><rect x="56" y="8" width="2" height="50" fill="#2fffd2"/>
  <rect x="6" y="56" width="52" height="2" fill="#08261d"/>

  <!-- shadow -->
  <g fill="#8a6b00">
    <rect x="30" y="18" width="6" height="18"/>
    <rect x="28" y="22" width="10" height="18"/>
    <rect x="26" y="40" width="14" height="4"/>
    <rect x="28" y="44" width="10" height="4"/>
    <rect x="31" y="48" width="4" height="4"/>
  </g>

  <!-- rocket -->
  <g fill="#ffd84d">
    <rect x="29" y="17" width="6" height="18"/>
    <rect x="27" y="21" width="10" height="18"/>
    <rect x="25" y="39" width="14" height="4"/>
    <rect x="27" y="43" width="10" height="4"/>
    <rect x="30" y="47" width="4" height="4"/>
  </g>

  <!-- window cut -->
  <rect x="30" y="28" width="4" height="4" fill="#114a38" opacity="0.75"/>
</svg>
